<?xml version="1.0" standalone="no"?>
<!DOCTYPE svg PUBLIC "-//W3C//DTD SVG 20010904//EN"
 "http://www.w3.org/TR/2001/REC-SVG-20010904/DTD/svg10.dtd">
<svg version="1.0" xmlns="http://www.w3.org/2000/svg"
 width="595.000000pt" height="595.000000pt" viewBox="0 0 595.000000 595.000000"
 preserveAspectRatio="xMidYMid meet">
<metadata>
Created by potrace 1.14, written by Peter Selinger 2001-2017
</metadata>
<g transform="translate(0.000000,595.000000) scale(0.100000,-0.100000)"
fill="#000000" stroke="none">
<path d="M2865 5298 c-27 -5 -88 -27 -135 -50 -198 -95 -320 -291 -320 -513 0
-157 54 -289 165 -400 231 -231 576 -234 806 -5 119 118 172 242 172 405 0
164 -58 300 -178 414 -139 132 -320 185 -510 149z"/>
<path d="M2570 3779 c0 -138 3 -248 8 -246 4 2 69 41 146 87 l138 82 38 -21
c51 -29 108 -27 154 4 l36 24 147 -88 148 -89 3 240 c1 133 0 243 -2 245 -3 3
-69 -34 -148 -81 -129 -77 -144 -84 -155 -69 -23 31 -68 53 -108 53 -40 0
-105 -31 -105 -50 0 -19 -19 -10 -159 75 l-141 84 0 -250z"/>
<path d="M1790 3834 c0 -3 236 -396 525 -874 l525 -869 0 -591 0 -590 -220 0
-220 0 0 -145 0 -145 585 0 585 0 0 145 0 145 -225 0 -225 0 0 588 0 587 523
865 c287 476 526 871 530 878 6 9 -28 12 -160 12 l-168 -1 -429 -744 c-235
-410 -431 -745 -435 -745 -3 0 -199 335 -435 745 l-430 745 -163 0 c-90 0
-163 -3 -163 -6z"/>
<path d="M2904 3451 c-32 -20 -64 -74 -64 -110 0 -136 195 -181 253 -58 21 44
21 70 0 114 -32 68 -123 94 -189 54z"/>
<path d="M2930 3074 c-32 -13 -80 -69 -86 -100 -13 -68 33 -139 98 -153 77
-17 150 29 164 104 13 71 -44 145 -118 151 -24 2 -50 1 -58 -2z"/>
</g>
</svg>
